<svg xmlns="http://www.w3.org/2000/svg" viewBox="0 0 395.41 76.52"><defs><style>.cls-1{fill:#fff;}.cls-2{fill:#ffd500;}</style></defs><title>Element 1</title><g id="Ebene_2" data-name="Ebene 2"><g id="Ebene_1-2" data-name="Ebene 1"><path class="cls-1" d="M122,0l-5.79,21.64h22.52L124,76.52h20.38c4.86-.15,6-3,6.47-4.74l13.48-50.14h17.32c4.87-.15,6-3,6.47-4.74L192.61,0Z"/><path class="cls-2" d="M192.61,0a15.57,15.57,0,0,1,1.71,2.91c1.11,2.36,3,6.07,1.84,10.48l-17,63.13h20.38c4.86-.15,6-3,6.47-4.74L225.33,0Z"/><path class="cls-2" d="M277.86,0a15.53,15.53,0,0,1,1.71,2.91c1.11,2.36,3,6.07,1.84,10.48l-6.23,23.13L257.79,0H225.33s1.34,2.22,2.87,5,2.24,7.65.69,13.45h0l-15.58,58h20.17c4.86-.15,6-3,6.47-4.74l9-33.3,18.15,38h17.53c4.86-.15,6-3,6.47-4.74L310.37,0Z"/><path class="cls-2" d="M362.9,0a15.53,15.53,0,0,1,1.71,2.91c1.11,2.36,3,6.07,1.84,10.48l-6.23,23.13L342.83,0H310.37s1.34,2.22,2.87,5,2.24,7.65.69,13.45h0l-15.59,58h20.17c4.86-.15,6-3,6.47-4.74l9-33.3,18.14,38h17.53c4.86-.15,6-3,6.47-4.74L395.41,0Z"/><path class="cls-1" d="M84.61,0a24.07,24.07,0,0,1,1.63,3,14.92,14.92,0,0,1,1,10.4l-17,63.14H90.67c4.87-.15,6-3,6.47-4.74L116.41,0Z"/><path class="cls-1" d="M14.18,0a24,24,0,0,1,1.63,3A14.83,14.83,0,0,1,17,13.38L0,76.52H20.37a6.14,6.14,0,0,0,1.2-.13,5.8,5.8,0,0,0,5.27-4.61l5.41-20.29H62.79c4.87-.15,6-3,6.47-4.74l4.08-15.16H37.6l2.62-9.73H73.51c4.86-.15,6-3,6.47-4.74L84.61,0Z"/></g></g></svg>
